<svg width="134" height="32" viewBox="0 0 134 32" fill="#273BF4" xmlns="http://www.w3.org/2000/svg"> <path d="M27.2627 11.5888C26.9832 12.6517 26.7703 13.7811 26.3843 14.8573C24.7474 19.4014 22.6581 23.7063 19.3311 27.307C18.7722 27.9049 18.2265 28.5294 17.5877 29.021C16.8026 29.6454 16.4166 29.6454 15.6315 28.9811C14.7665 28.2371 13.9547 27.4133 13.2094 26.5364C9.94897 22.6699 7.75315 18.2454 6.28927 13.4224C6.14288 12.9573 6.0098 12.479 5.96988 12.0007C5.92995 11.642 5.94326 11.2035 6.11627 10.9378C8.19231 7.72237 10.5345 4.71958 13.3824 2.16853C16.0041 -0.183218 17.3881 -0.183218 19.9832 2.18182C22.7246 4.66643 24.9338 7.61608 26.93 10.7119C27.1163 10.9245 27.1429 11.2301 27.2627 11.5888Z"></path> <path d="M85.924 10.207C88.4126 8.55944 90.7548 8.82517 93.0039 10.5126C93.3632 10.7783 93.5495 10.5923 93.8023 10.4196C96.3175 8.77202 98.9525 8.65244 101.627 9.91468C103.544 10.8315 104.475 12.4524 104.502 14.565C104.529 17.9531 104.515 21.3413 104.502 24.7294C104.502 25.5399 104.356 25.686 103.517 25.686C102.679 25.686 101.827 25.686 100.989 25.686C100.11 25.686 100.017 25.593 100.017 24.6762C100.017 21.5538 100.017 18.4315 100.017 15.3091C100.017 14.007 99.3784 13.2762 98.0742 13.1965C97.5153 13.1566 96.9164 13.2098 96.3708 13.3559C95.5457 13.5951 95.173 14.1797 95.173 15.0566C95.173 18.272 95.173 21.4741 95.173 24.6895C95.173 25.5531 95.04 25.686 94.1616 25.686C93.2966 25.686 92.4316 25.686 91.5666 25.686C90.808 25.686 90.6883 25.5532 90.6883 24.7825C90.6883 21.7664 90.6883 18.7636 90.6883 15.7476C90.6883 13.6615 89.4639 12.7182 87.4012 13.2364C86.3232 13.5021 85.8575 14.1 85.8575 15.2294C85.8575 18.3916 85.8575 21.5538 85.8575 24.7294C85.8575 25.5399 85.6978 25.6993 84.886 25.6993C83.981 25.6993 83.0628 25.686 82.1579 25.6993C81.5989 25.7126 81.3594 25.4469 81.3594 24.9021C81.3727 20.0392 81.3727 15.1629 81.3594 10.3C81.3594 9.72867 81.6255 9.51608 82.1712 9.51608C83.0362 9.52937 83.9012 9.54265 84.7662 9.51608C85.3385 9.48951 85.8175 9.51608 85.924 10.207Z"></path> <path d="M72.7359 10.6853C72.7359 8.62587 72.7359 6.72587 72.7359 4.82587C72.7359 3.86923 72.8158 3.78951 73.7474 3.78951C74.639 3.78951 75.5173 3.8028 76.409 3.78951C76.9546 3.78951 77.2207 4.02867 77.2207 4.58671C77.2207 11.3629 77.2207 18.1259 77.2207 24.9021C77.2207 25.4601 76.9546 25.6993 76.409 25.686C75.5706 25.6727 74.7188 25.686 73.8804 25.686C72.8291 25.686 72.8158 25.6727 72.6694 24.5566C70.1409 26.2573 67.4394 26.4965 64.6181 25.5266C62.9945 24.9685 61.7036 23.9455 60.7721 22.5105C58.736 19.3881 59.0154 14.6182 61.3709 11.8811C62.7949 10.2336 64.6314 9.42308 66.7474 9.15734C68.8766 8.90489 70.8329 9.3965 72.7359 10.6853ZM68.331 22.0322C70.966 22.0455 72.7226 20.2783 72.7359 17.6077C72.7493 14.9371 71.0059 13.1566 68.3709 13.1434C65.6694 13.1301 63.9128 14.8573 63.9128 17.5678C63.9128 20.2916 65.6295 22.0189 68.331 22.0322Z"></path> <path d="M51.6294 10.5524C51.8291 9.50279 51.8291 9.50279 52.9336 9.50279C53.7587 9.50279 54.5705 9.51608 55.3956 9.50279C55.9545 9.50279 56.1941 9.75524 56.1941 10.3C56.1941 15.1762 56.1941 20.0392 56.1941 24.9154C56.1941 25.4336 55.9412 25.686 55.4222 25.686C54.5572 25.686 53.6922 25.686 52.8272 25.686C51.8024 25.686 51.7891 25.6594 51.6427 24.6364C51.483 24.7161 51.3234 24.7825 51.1903 24.8622C48.4222 26.5231 45.561 26.5098 42.7663 25.0482C39.9716 23.5867 38.8005 21.0622 38.6808 18.0063C38.5743 15.4021 39.2397 13.0371 41.2226 11.2168C43.8576 8.78531 48.0363 8.41328 51.1104 10.2734C51.2701 10.3797 51.4431 10.4594 51.6294 10.5524ZM47.5173 13.1566C44.9754 13.1035 43.2055 14.8308 43.1522 17.3951C43.099 20.1986 44.7359 21.9923 47.3842 22.0322C49.9393 22.072 51.6694 20.3315 51.7093 17.6874C51.7625 15.0035 50.0857 13.1965 47.5173 13.1566Z"></path> <path d="M125.209 13.7413C126.034 12.4657 126.833 11.2832 127.578 10.0608C127.831 9.66223 128.097 9.47622 128.589 9.4895C129.814 9.52936 131.025 9.4895 132.249 9.51608C132.462 9.51608 132.781 9.66223 132.861 9.83496C132.941 10.0077 132.861 10.3399 132.741 10.5126C131.304 12.479 129.88 14.4587 128.376 16.372C127.897 16.9832 127.937 17.3552 128.39 17.9531C130.053 20.1322 131.663 22.3643 133.274 24.5832C133.42 24.7958 133.513 25.1678 133.42 25.3804C133.353 25.5399 132.968 25.6594 132.728 25.6594C131.557 25.686 130.372 25.6461 129.201 25.686C128.722 25.6993 128.443 25.5664 128.19 25.1413C127.338 23.7727 126.433 22.4308 125.542 21.0888C125.449 20.9427 125.342 20.8231 125.182 20.6105C124.703 21.3147 124.264 21.9657 123.825 22.6301C123.253 23.4937 122.707 24.3839 122.095 25.221C121.935 25.4468 121.589 25.6461 121.31 25.6594C120.072 25.6993 118.821 25.6993 117.584 25.6594C117.344 25.6594 116.998 25.5133 116.918 25.3273C116.838 25.1413 116.945 24.7825 117.078 24.5832C118.755 22.2713 120.445 19.9594 122.161 17.6874C122.481 17.2622 122.454 17.0098 122.148 16.6112C120.618 14.6049 119.127 12.572 117.637 10.5392C117.504 10.3664 117.411 10.021 117.49 9.87482C117.597 9.6888 117.916 9.52936 118.142 9.52936C119.38 9.4895 120.631 9.4895 121.869 9.52936C122.135 9.54265 122.494 9.74195 122.654 9.96782C123.399 11.0175 124.078 12.0937 124.796 13.1699C124.903 13.3426 125.036 13.5021 125.209 13.7413Z"></path> <path d="M18.4932 31.479C23.843 26.9748 26.8506 21.0755 29.0996 14.6315C29.1795 14.7378 29.2593 14.7909 29.2859 14.8573C30.5103 17.714 31.8011 20.5706 32.4266 23.6399C32.5996 24.4769 32.6529 25.3406 32.746 26.2042C32.8525 27.214 32.4665 28.0776 31.6281 28.5958C30.843 29.0874 29.9913 29.4993 29.1262 29.7783C25.6795 30.8545 22.1262 31.293 18.4932 31.479Z"></path> <path d="M4.02698 14.5916C6.34257 21.142 9.41672 26.935 14.7798 31.4657C13.7418 31.386 12.7836 31.3329 11.8388 31.2266C9.08401 30.9077 6.35588 30.4427 3.7342 29.5126C2.97565 29.2469 2.21709 28.8748 1.53839 28.4364C0.633442 27.8518 0.300743 26.9483 0.380591 25.8587C0.566902 23.321 1.33877 20.9692 2.29694 18.6441C2.84257 17.3287 3.4015 16.0399 4.02698 14.5916Z"></path> <path d="M108.801 17.5545C108.801 15.1895 108.801 12.8112 108.801 10.4462C108.801 9.60909 108.907 9.5028 109.772 9.5028C110.664 9.5028 111.542 9.51609 112.434 9.5028C113.006 9.48951 113.286 9.72867 113.286 10.3266C113.272 15.1762 113.272 20.0259 113.286 24.8755C113.286 25.4734 113.006 25.6993 112.434 25.6993C111.529 25.686 110.611 25.6993 109.706 25.6993C108.934 25.6993 108.801 25.5664 108.801 24.8091C108.801 22.3909 108.801 19.9727 108.801 17.5545Z"></path> <path d="M111.076 3.78951C111.542 3.78951 112.008 3.80279 112.474 3.78951C113.019 3.77622 113.299 4.01538 113.299 4.57342C113.285 5.45034 113.299 6.34055 113.299 7.21748C113.299 7.70909 113.046 7.96153 112.58 7.96153C111.569 7.97482 110.544 7.97482 109.532 7.96153C109.093 7.96153 108.827 7.73566 108.827 7.27062C108.827 6.34055 108.827 5.42377 108.827 4.4937C108.827 3.98881 109.093 3.77622 109.572 3.78951C110.051 3.80279 110.571 3.78951 111.076 3.78951Z"></path> </svg>